<svg width="261" height="70" viewBox="0 0 261 70" fill="none" xmlns="http://www.w3.org/2000/svg">
<path d="M35 0C54.33 0 70 15.67 70 35C70 54.33 54.33 70 35 70C15.67 70 0 54.33 0 35C0 15.67 15.67 0 35 0ZM23.7188 23.7227V46.5137H46.5098V23.7227H23.7188Z" fill="black"/>
<path d="M103.488 52.98C99.744 52.98 96.528 52.244 93.84 50.772C91.152 49.3 89.072 47.236 87.6 44.58C86.16 41.924 85.44 38.82 85.44 35.268C85.44 31.748 86.176 28.66 87.648 26.004C89.12 23.316 91.152 21.22 93.744 19.716C96.368 18.212 99.408 17.46 102.864 17.46C105.712 17.46 108.256 17.972 110.496 18.996C112.768 20.02 114.592 21.428 115.968 23.22C117.376 24.98 118.208 27.028 118.464 29.364H111.072C110.752 27.476 109.856 26.004 108.384 24.948C106.944 23.86 105.136 23.316 102.96 23.316C100.944 23.316 99.184 23.796 97.68 24.756C96.176 25.684 95.008 27.028 94.176 28.788C93.344 30.548 92.928 32.66 92.928 35.124C92.928 37.684 93.344 39.876 94.176 41.7C95.008 43.492 96.224 44.868 97.824 45.828C99.456 46.756 101.456 47.22 103.824 47.22C105.744 47.22 107.376 46.98 108.72 46.5C110.064 46.02 111.088 45.348 111.792 44.484L118.8 47.268C116.944 49.124 114.784 50.548 112.32 51.54C109.888 52.5 106.944 52.98 103.488 52.98ZM111.408 47.268V37.764L112.896 39.252H103.776V33.588H118.8V47.268H111.408ZM121.089 52.5V17.94H128.289V52.5H121.089ZM131.627 52.5V28.02H138.827V52.5H131.627ZM131.387 24.756V16.98H139.067V24.756H131.387ZM142.164 52.5V28.02H149.22V33.78H149.364V52.5H142.164ZM158.628 52.5V36.948C158.628 35.7 158.292 34.788 157.62 34.212C156.98 33.604 156.068 33.3 154.884 33.3C153.86 33.3 152.916 33.54 152.052 34.02C151.22 34.468 150.564 35.124 150.084 35.988C149.604 36.82 149.364 37.812 149.364 38.964L148.74 33.444C149.54 31.652 150.692 30.228 152.196 29.172C153.732 28.084 155.572 27.54 157.716 27.54C160.276 27.54 162.26 28.26 163.668 29.7C165.108 31.14 165.828 32.948 165.828 35.124V52.5H158.628ZM175.092 52.5V36.948C175.092 35.7 174.756 34.788 174.084 34.212C173.444 33.604 172.532 33.3 171.348 33.3C170.324 33.3 169.38 33.54 168.516 34.02C167.684 34.468 167.028 35.124 166.548 35.988C166.068 36.82 165.828 37.812 165.828 38.964L164.724 33.444C165.524 31.652 166.708 30.228 168.276 29.172C169.876 28.084 171.796 27.54 174.036 27.54C176.692 27.54 178.724 28.292 180.132 29.796C181.572 31.268 182.292 33.204 182.292 35.604V52.5H175.092ZM200.302 52.98C197.966 52.98 196.094 52.436 194.686 51.348C193.278 50.26 192.446 48.772 192.19 46.884L192.574 46.836V62.34H185.374V28.02H192.43V33.444L191.998 33.348C192.35 31.556 193.31 30.148 194.878 29.124C196.446 28.068 198.382 27.54 200.686 27.54C202.894 27.54 204.798 28.068 206.398 29.124C208.03 30.148 209.278 31.604 210.142 33.492C211.038 35.38 211.486 37.604 211.486 40.164C211.486 42.756 211.022 45.012 210.094 46.932C209.166 48.852 207.87 50.34 206.206 51.396C204.542 52.452 202.574 52.98 200.302 52.98ZM198.286 47.22C199.982 47.22 201.358 46.612 202.414 45.396C203.47 44.18 203.998 42.452 203.998 40.212C203.998 37.972 203.454 36.26 202.366 35.076C201.31 33.892 199.918 33.3 198.19 33.3C196.526 33.3 195.15 33.908 194.062 35.124C193.006 36.308 192.478 38.02 192.478 40.26C192.478 42.5 193.006 44.228 194.062 45.444C195.15 46.628 196.558 47.22 198.286 47.22ZM223.143 52.98C219.559 52.98 216.711 52.26 214.599 50.82C212.487 49.38 211.335 47.396 211.143 44.868H217.575C217.735 45.956 218.279 46.788 219.207 47.364C220.167 47.908 221.479 48.18 223.143 48.18C224.647 48.18 225.735 47.972 226.407 47.556C227.111 47.108 227.463 46.484 227.463 45.684C227.463 45.076 227.255 44.612 226.839 44.292C226.455 43.94 225.735 43.652 224.679 43.428L220.743 42.612C217.831 42.004 215.687 41.092 214.311 39.876C212.935 38.628 212.247 37.028 212.247 35.076C212.247 32.708 213.159 30.868 214.983 29.556C216.807 28.212 219.351 27.54 222.615 27.54C225.847 27.54 228.423 28.196 230.343 29.508C232.263 30.788 233.319 32.58 233.511 34.884H227.079C226.951 34.052 226.503 33.428 225.735 33.012C224.967 32.564 223.879 32.34 222.471 32.34C221.191 32.34 220.231 32.532 219.591 32.916C218.983 33.268 218.679 33.78 218.679 34.452C218.679 35.028 218.935 35.492 219.447 35.844C219.959 36.164 220.807 36.452 221.991 36.708L226.407 37.62C228.871 38.132 230.727 39.092 231.975 40.5C233.255 41.876 233.895 43.508 233.895 45.396C233.895 47.796 232.951 49.668 231.063 51.012C229.207 52.324 226.567 52.98 223.143 52.98ZM247.406 52.98C244.686 52.98 242.318 52.452 240.302 51.396C238.286 50.308 236.718 48.804 235.598 46.884C234.51 44.964 233.966 42.756 233.966 40.26C233.966 37.732 234.51 35.524 235.598 33.636C236.718 31.716 238.27 30.228 240.254 29.172C242.238 28.084 244.542 27.54 247.166 27.54C249.694 27.54 251.886 28.052 253.742 29.076C255.598 30.1 257.038 31.524 258.062 33.348C259.086 35.172 259.598 37.316 259.598 39.78C259.598 40.292 259.582 40.772 259.55 41.22C259.518 41.636 259.47 42.036 259.406 42.42H238.19V37.668H253.598L252.35 38.532C252.35 36.548 251.87 35.092 250.91 34.164C249.982 33.204 248.702 32.724 247.07 32.724C245.182 32.724 243.71 33.364 242.654 34.644C241.63 35.924 241.118 37.844 241.118 40.404C241.118 42.9 241.63 44.756 242.654 45.972C243.71 47.188 245.278 47.796 247.358 47.796C248.51 47.796 249.502 47.604 250.334 47.22C251.166 46.836 251.79 46.212 252.206 45.348H258.974C258.174 47.716 256.798 49.588 254.846 50.964C252.926 52.308 250.446 52.98 247.406 52.98Z" fill="black"/>
</svg>
